<svg width="22" height="14" viewBox="0 0 22 14" fill="none" xmlns="http://www.w3.org/2000/svg">
<path d="M13.9653 1.67034H19.1648V2.93178H13.9653V1.67034ZM8.7553 6.66137C9.90467 6.11144 10.5067 5.27482 10.5067 3.98211C10.5067 1.42535 8.60414 0.805054 6.40704 0.805054H0.360474V13.6384H6.57645C8.90647 13.6384 11.0931 12.5177 11.0931 9.9114C11.0931 8.30072 10.3321 7.10965 8.7553 6.66137ZM3.18047 2.99433H5.82584C6.8449 2.99433 7.7597 3.27841 7.7597 4.46166C7.7597 5.55109 7.04819 5.98895 6.03956 5.98895H3.18047V2.99433ZM6.19072 11.4595H3.17786V7.92541H6.25067C7.49126 7.92541 8.27575 8.44406 8.27575 9.75763C8.27575 11.0503 7.34009 11.4595 6.19072 11.4595ZM21.1977 9.12691C21.1977 6.37728 19.5896 4.08636 16.681 4.08636C13.8532 4.08636 11.9298 6.21569 11.9298 9.00702C11.9298 11.9 13.7515 13.886 16.681 13.886C18.8989 13.886 20.335 12.8878 21.0257 10.7584H18.7764C18.5315 11.5534 17.5359 11.9704 16.7618 11.9704C15.2658 11.9704 14.4839 11.0946 14.4839 9.60646H21.1794C21.1873 9.45269 21.1977 9.2911 21.1977 9.12691ZM14.4839 7.99578C14.5647 6.77344 15.3805 6.0098 16.6002 6.0098C17.8825 6.0098 18.5236 6.76301 18.6357 7.99578H14.4839Z" fill="#2C2C2C"/>
</svg>
