<svg width="27" height="27" viewBox="0 0 27 27" fill="none" xmlns="http://www.w3.org/2000/svg">
<path d="M5.60606 8.00313C6.94981 8.00313 8.03914 6.9138 8.03914 5.57005C8.03914 4.22629 6.94981 3.13696 5.60606 3.13696C4.2623 3.13696 3.17297 4.22629 3.17297 5.57005C3.17297 6.9138 4.2623 8.00313 5.60606 8.00313Z" fill="#2C2C2C"/>
<path d="M10.3366 9.84691V23.3456H14.5278V16.6702C14.5278 14.9088 14.8591 13.203 17.0431 13.203C19.1971 13.203 19.2238 15.2168 19.2238 16.7814V23.3467H23.4172V15.9441C23.4172 12.3078 22.6343 9.51331 18.3842 9.51331C16.3437 9.51331 14.9759 10.6331 14.4166 11.6929H14.3598V9.84691H10.3366V9.84691ZM3.50659 9.84691H7.70444V23.3456H3.50659V9.84691Z" fill="#2C2C2C"/>
</svg>
