<svg width="139" height="139" viewBox="0 0 139 139" fill="none" xmlns="http://www.w3.org/2000/svg">
<path d="M48.732 86.9951C57.264 87.1114 65.4975 83.8576 71.6446 77.9401C77.7918 72.0227 81.3562 63.9195 81.564 55.39C81.5624 51.2048 80.7131 47.0633 79.0673 43.2152C77.4215 39.3671 75.0133 35.8922 71.988 33C80.9567 33.8855 89.2837 38.0475 95.3748 44.6893C101.466 51.331 104.893 59.9859 105 68.9967C104.783 78.7386 100.713 87.9972 93.6815 94.7443C86.6504 101.491 77.2314 105.177 67.488 104.993C60.2322 105.057 53.1135 103.017 46.9929 99.1198C40.8723 95.2229 36.0121 89.6362 33 83.0355C37.8401 85.625 43.2427 86.9848 48.732 86.9951Z" fill="#2C2C2C" stroke="#2C2C2C" stroke-linecap="round" stroke-linejoin="round"/>
</svg>
