<svg width="139" height="139" viewBox="0 0 139 139" fill="none" xmlns="http://www.w3.org/2000/svg">
<path d="M69 105C88.8823 105 105 88.8823 105 69C105 49.1177 88.8823 33 69 33C49.1177 33 33 49.1177 33 69C33 88.8823 49.1177 105 69 105Z" fill="#FF7B00"/>
<path d="M74.7097 23.8504V15.7097C74.7097 12.5574 72.1541 10 69 10C65.8459 10 63.2903 12.5575 63.2903 15.7097V23.8504C63.2903 27.0027 65.8459 29.5601 69 29.5601C72.1541 29.5601 74.7097 27.0027 74.7097 23.8504ZM41.1133 41.1096C43.3418 38.8792 43.3418 35.2624 41.1114 33.0357L35.3553 27.2814C33.1249 25.0511 29.5099 25.0511 27.2796 27.2814C25.0511 29.5118 25.0511 33.1286 27.2814 35.3553L33.0376 41.1096C34.1527 42.2247 35.6136 42.7823 37.0745 42.7823C38.5354 42.7823 39.9981 42.2247 41.1133 41.1096ZM15.7097 74.7097H23.8486C27.0026 74.7097 29.5582 72.1522 29.5582 69C29.5582 65.8478 27.0026 63.2903 23.8486 63.2903H15.7097C12.5556 63.2903 10 65.8478 10 69C10 72.1522 12.5556 74.7097 15.7097 74.7097ZM27.2796 110.719C28.3948 111.834 29.8575 112.391 31.3184 112.391C32.7793 112.391 34.2401 111.834 35.3553 110.719L41.1115 104.964C43.3418 102.738 43.3418 99.1208 41.1133 96.8904C38.883 94.6601 35.268 94.6601 33.0376 96.8904L27.2815 102.645C25.0511 104.871 25.0511 108.488 27.2796 110.719ZM63.2903 114.15V122.29C63.2903 125.443 65.8459 128 69 128C72.1541 128 74.7097 125.443 74.7097 122.29V114.15C74.7097 110.997 72.1541 108.44 69 108.44C65.8459 108.44 63.2903 110.997 63.2903 114.15ZM102.645 110.719C103.76 111.834 105.221 112.391 106.682 112.391C108.143 112.391 109.603 111.834 110.719 110.719C112.949 108.488 112.949 104.875 110.719 102.645L104.964 96.8904C102.734 94.6601 99.1208 94.6601 96.8905 96.8904C94.6602 99.1208 94.6601 102.734 96.8905 104.964L102.645 110.719ZM122.29 63.2903H114.15C110.997 63.2903 108.44 65.8478 108.44 69C108.44 72.1522 110.997 74.7097 114.15 74.7097H122.29C125.443 74.7097 128 72.1522 128 69C128 65.8478 125.443 63.2903 122.29 63.2903ZM110.719 27.2814C108.488 25.0511 104.875 25.0511 102.645 27.2814L96.8904 33.0357C94.6601 35.2661 94.6601 38.8792 96.8904 41.1096C98.0056 42.2247 99.4665 42.7823 100.927 42.7823C102.388 42.7823 103.849 42.2247 104.964 41.1096L110.719 35.3553C112.949 33.125 112.949 29.5118 110.719 27.2814Z" fill="#FF7B00"/>
</svg>
