<svg width="26" height="21" viewBox="0 0 26 21" fill="none" xmlns="http://www.w3.org/2000/svg">
<path d="M25.9796 2.48995C25.0511 2.90139 24.0536 3.1794 23.005 3.30505C24.0869 2.65763 24.8964 1.63867 25.2824 0.438285C24.2658 1.0421 23.1532 1.46711 21.993 1.69486C21.2128 0.861812 20.1794 0.309654 19.0532 0.124112C17.927 -0.0614296 16.7711 0.130025 15.7649 0.668752C14.7587 1.20748 13.9585 2.06334 13.4885 3.10345C13.0186 4.14356 12.9051 5.30974 13.1659 6.42091C11.1061 6.31749 9.09104 5.78212 7.25154 4.84953C5.41204 3.91695 3.7892 2.608 2.48832 1.00764C2.04351 1.77492 1.78775 2.66453 1.78775 3.61197C1.78725 4.46488 1.99729 5.30472 2.39922 6.05699C2.80115 6.80925 3.38256 7.45068 4.09184 7.92436C3.26926 7.89818 2.46482 7.67591 1.74549 7.27605V7.34277C1.74541 8.53901 2.1592 9.69844 2.91665 10.6243C3.67409 11.5502 4.72855 12.1855 5.90108 12.4224C5.138 12.629 4.33797 12.6594 3.56141 12.5114C3.89223 13.5407 4.53664 14.4408 5.40442 15.0856C6.27221 15.7305 7.31992 16.0878 8.40089 16.1077C6.56588 17.5482 4.29966 18.3296 1.96678 18.3261C1.55354 18.3262 1.14064 18.3021 0.730225 18.2538C3.09823 19.7764 5.85476 20.5844 8.67 20.5813C18.1999 20.5813 23.4097 12.6882 23.4097 5.84267C23.4097 5.62027 23.4042 5.39564 23.3942 5.17324C24.4075 4.44039 25.2823 3.5329 25.9774 2.49328L25.9796 2.48995Z" fill="#2C2C2C"/>
</svg>
